<svg width="16" height="16" viewBox="0 0 16 16" fill="none" xmlns="http://www.w3.org/2000/svg">
<path d="M6.1656 8.23439C6.0918 8.15799 6.00352 8.09704 5.90592 8.05511C5.80832 8.01319 5.70334 7.99112 5.59712 7.99019C5.4909 7.98927 5.38555 8.00951 5.28724 8.04974C5.18892 8.08996 5.0996 8.14936 5.02448 8.22448C4.94937 8.29959 4.88997 8.38891 4.84974 8.48723C4.80952 8.58555 4.78927 8.69089 4.7902 8.79712C4.79112 8.90334 4.81319 9.00831 4.85512 9.10592C4.89704 9.20352 4.95799 9.2918 5.0344 9.36559L7.4344 11.7656C7.58442 11.9156 7.78787 11.9998 8 11.9998C8.21213 11.9998 8.41558 11.9156 8.5656 11.7656L10.9656 9.36559C11.1113 9.21471 11.192 9.01263 11.1901 8.80287C11.1883 8.59312 11.1042 8.39247 10.9559 8.24414C10.8075 8.09581 10.6069 8.01168 10.3971 8.00986C10.1874 8.00803 9.98528 8.08867 9.8344 8.23439L8.8 9.2688V4.79999H12.8C13.2243 4.79999 13.6313 4.96856 13.9314 5.26862C14.2314 5.56868 14.4 5.97565 14.4 6.39999V12C14.4 12.4243 14.2314 12.8313 13.9314 13.1314C13.6313 13.4314 13.2243 13.6 12.8 13.6H3.2C2.77565 13.6 2.36869 13.4314 2.06863 13.1314C1.76857 12.8313 1.6 12.4243 1.6 12V6.39999C1.6 5.97565 1.76857 5.56868 2.06863 5.26862C2.36869 4.96856 2.77565 4.79999 3.2 4.79999H7.2V9.2688L6.1656 8.23439ZM7.2 3.19999C7.2 2.98782 7.28428 2.78434 7.43431 2.63431C7.58434 2.48428 7.78783 2.39999 8 2.39999C8.21217 2.39999 8.41565 2.48428 8.56568 2.63431C8.71571 2.78434 8.8 2.98782 8.8 3.19999V4.79999H7.2V3.19999Z" fill="white" fill-opacity="0.6"/>
</svg>
