<svg width="16" height="16" viewBox="0 0 16 16" fill="none" xmlns="http://www.w3.org/2000/svg">
<path fill-rule="evenodd" clip-rule="evenodd" d="M6.16559 2.63441C6.31556 2.78443 6.39982 2.98787 6.39982 3.20001C6.39982 3.41214 6.31556 3.61558 6.16559 3.76561L4.33119 5.60001H8.79999C10.2852 5.60001 11.7096 6.19 12.7598 7.24021C13.81 8.29041 14.4 9.71479 14.4 11.2V12.8C14.4 13.0122 14.3157 13.2157 14.1657 13.3657C14.0156 13.5157 13.8122 13.6 13.6 13.6C13.3878 13.6 13.1843 13.5157 13.0343 13.3657C12.8843 13.2157 12.8 13.0122 12.8 12.8V11.2C12.8 10.1391 12.3786 9.12172 11.6284 8.37158C10.8783 7.62143 9.86085 7.20001 8.79999 7.20001H4.33119L6.16559 9.03441C6.242 9.1082 6.30294 9.19648 6.34487 9.29408C6.3868 9.39169 6.40886 9.49666 6.40979 9.60289C6.41071 9.70911 6.39047 9.81445 6.35024 9.91277C6.31002 10.0111 6.25062 10.1004 6.1755 10.1755C6.10039 10.2506 6.01107 10.31 5.91275 10.3503C5.81443 10.3905 5.70909 10.4107 5.60287 10.4098C5.49664 10.4089 5.39167 10.3868 5.29406 10.3449C5.19646 10.303 5.10819 10.242 5.03439 10.1656L1.83439 6.96561C1.68441 6.81558 1.60016 6.61214 1.60016 6.40001C1.60016 6.18787 1.68441 5.98443 1.83439 5.83441L5.03439 2.63441C5.18441 2.48443 5.38786 2.40018 5.59999 2.40018C5.81212 2.40018 6.01557 2.48443 6.16559 2.63441Z" fill="black" fill-opacity="0.5"/>
</svg>
